<svg width="12" height="13" viewBox="0 0 12 13" fill="none" xmlns="http://www.w3.org/2000/svg">
<path d="M0.375023 6.49064C0.340797 8.11299 0.95104 9.68276 2.07205 10.856C3.19306 12.0293 4.73342 12.7104 6.35565 12.75C7.42547 12.7381 8.47231 12.4382 9.38614 11.8818C10.3 11.3254 11.047 10.5331 11.5488 9.58814C11.6025 9.48973 11.6288 9.37866 11.6249 9.26659C11.621 9.15452 11.5869 9.04557 11.5264 8.95116C11.4659 8.85676 11.3811 8.78038 11.2809 8.73004C11.1807 8.67969 11.0688 8.65723 10.9569 8.66501L10.8881 8.67002C10.8063 8.67626 10.7238 8.68251 10.6381 8.68251C9.34742 8.64296 8.12494 8.09363 7.23833 7.15477C6.35171 6.21591 5.87319 4.96402 5.90752 3.67314C5.90742 2.79989 6.12571 1.94049 6.54252 1.17314C6.59621 1.07482 6.62249 0.963881 6.6186 0.851927C6.61472 0.739972 6.58082 0.63112 6.52045 0.536759C6.46007 0.442398 6.37545 0.365998 6.27543 0.315553C6.17541 0.265108 6.06367 0.242472 5.9519 0.250015C4.40717 0.396515 2.97465 1.12064 1.94072 2.27763C0.906782 3.43462 0.347623 4.93922 0.375023 6.49064ZM4.9644 1.70814C4.76237 2.34358 4.6595 3.00636 4.6594 3.67314C4.63475 5.1559 5.144 6.59811 6.09425 7.73663C7.04449 8.87516 8.37238 9.63411 9.83565 9.87501C9.40585 10.3794 8.8727 10.7855 8.2723 11.0658C7.6719 11.3462 7.01826 11.4943 6.35565 11.5C5.06492 11.4605 3.84244 10.9111 2.95583 9.97227C2.06921 9.03341 1.59069 7.78152 1.62502 6.49064C1.61042 5.44412 1.92492 4.41945 2.52411 3.56132C3.1233 2.70318 3.9769 2.05495 4.9644 1.70814Z" fill="black"/>
</svg>
